<svg xmlns="http://www.w3.org/2000/svg" x="0px" y="0px"
width="48" height="48"
viewBox="0 0 172 172"
style=" fill:#000000;"><defs><linearGradient x1="86.03583" y1="78.36033" x2="86.03583" y2="178.74742" gradientUnits="userSpaceOnUse" id="color-1_380DES2TDQgx_gr1"><stop offset="0" stop-color="#666666"></stop><stop offset="1" stop-color="#cccccc"></stop></linearGradient></defs><g fill="none" fill-rule="nonzero" stroke="none" stroke-width="1" stroke-linecap="butt" stroke-linejoin="miter" stroke-miterlimit="10" stroke-dasharray="" stroke-dashoffset="0" font-family="none" font-weight="none" font-size="none" text-anchor="none" style="mix-blend-mode: normal"><path d="M0,172v-172h172v172z" fill="none"></path><g><path d="M35.83333,38.13742c0,-1.2685 1.03558,-2.30408 2.30408,-2.30408h95.72517c1.2685,0 2.30408,1.03558 2.30408,2.30408v29.94592h10.75v-29.94592c0,-7.19892 -5.85517,-13.05408 -13.05408,-13.05408h-95.72517c-7.19892,0 -13.05408,5.85517 -13.05408,13.05408v29.94592h10.75z" fill="#cccccc"></path><path d="M156.26917,72.59833l-1.46917,9.81833l-0.215,1.43333l-8.42083,56.36583c-0.60917,3.87 -3.90583,6.70083 -7.81167,6.70083h-104.705c-3.90583,0 -7.2025,-2.83083 -7.81167,-6.70083l-8.34917,-56.36583l-0.215,-1.43333l-1.46917,-9.81833c-0.35833,-2.40083 1.46917,-4.515 3.90583,-4.515h132.655c2.43667,0 4.26417,2.11417 3.90583,4.515z" fill="url(#color-1_380DES2TDQgx_gr1)"></path><g fill="#000000" opacity="0.05"><rect x="7" y="18" transform="scale(3.58333,3.58333)" width="3" height="1"></rect><rect x="38" y="18" transform="scale(3.58333,3.58333)" width="3" height="1"></rect></g><path d="M156.26917,72.59833c0.35833,-2.40083 -1.46917,-4.515 -3.90583,-4.515h-132.655c-2.43667,0 -4.26417,2.11417 -3.90583,4.515l1.46917,9.81833h137.52833z" fill="#cccccc"></path><path d="M73.45833,139.75v0c-2.967,0 -5.375,-2.408 -5.375,-5.375v-39.41667c0,-2.967 2.408,-5.375 5.375,-5.375v0c2.967,0 5.375,2.408 5.375,5.375v39.41667c0,2.967 -2.408,5.375 -5.375,5.375z" fill="#cccccc"></path><path d="M48.375,139.75v0c-2.967,0 -5.375,-2.408 -5.375,-5.375v-39.41667c0,-2.967 2.408,-5.375 5.375,-5.375v0c2.967,0 5.375,2.408 5.375,5.375v39.41667c0,2.967 -2.408,5.375 -5.375,5.375z" fill="#cccccc"></path><path d="M98.54167,139.75v0c-2.967,0 -5.375,-2.408 -5.375,-5.375v-39.41667c0,-2.967 2.408,-5.375 5.375,-5.375v0c2.967,0 5.375,2.408 5.375,5.375v39.41667c0,2.967 -2.408,5.375 -5.375,5.375z" fill="#cccccc"></path><path d="M123.625,139.75v0c-2.967,0 -5.375,-2.408 -5.375,-5.375v-39.41667c0,-2.967 2.408,-5.375 5.375,-5.375v0c2.967,0 5.375,2.408 5.375,5.375v39.41667c0,2.967 -2.408,5.375 -5.375,5.375z" fill="#cccccc"></path><path d="M107.5,39.41667h-43c-1.978,0 -3.58333,-1.60533 -3.58333,-3.58333v-10.75c0,-1.978 1.60533,-3.58333 3.58333,-3.58333h43c1.978,0 3.58333,1.60533 3.58333,3.58333v10.75c0,1.978 -1.60533,3.58333 -3.58333,3.58333z" fill="#cccccc"></path><g fill="#000000" opacity="0.07"><rect x="7" y="18.5" transform="scale(3.58333,3.58333)" width="3" height="0.5"></rect><rect x="38" y="18.5" transform="scale(3.58333,3.58333)" width="3" height="0.5"></rect></g></g></g></svg>